<svg xmlns="http://www.w3.org/2000/svg" version="1.1" xmlns:xlink="http://www.w3.org/1999/xlink" xmlns:svgjs="http://svgjs.com/svgjs" width="1440" height="560" preserveAspectRatio="none" viewBox="0 0 1440 560"><g mask="url(&quot;#SvgjsMask1110&quot;)" fill="none"><rect width="1440" height="560" x="0" y="0" fill="url(#SvgjsLinearGradient1111)"></rect><path d="M1192.938,382.626C1225.078,383.157,1253.994,362.812,1268.827,334.295C1282.625,307.769,1277.846,275.927,1261.439,250.931C1246.596,228.317,1219.968,219.711,1192.938,218.679C1163.443,217.553,1130.528,220.395,1114.738,245.332C1098.154,271.523,1105.929,304.919,1121.272,331.856C1136.801,359.121,1161.565,382.107,1192.938,382.626" fill="rgba(28, 83, 142, 0.4)" class="triangle-float2"></path><path d="M857.57,256.472C876.177,257.399,895.282,250.321,904.757,234.28C914.37,218.006,912.585,197.032,901.882,181.453C892.361,167.594,874.366,164.81,857.57,165.595C842.401,166.304,827.871,172.361,819.899,185.287C811.514,198.883,810.407,215.833,817.879,229.952C825.856,245.025,840.537,255.623,857.57,256.472" fill="rgba(28, 83, 142, 0.4)" class="triangle-float3"></path><path d="M757.6376263309144 269.2282545136581L660.890292979873 140.840206784575 532.5022452507899 237.5875401356164 629.2495786018312 365.9755878646995z" fill="rgba(28, 83, 142, 0.4)" class="triangle-float1"></path><path d="M-103.99 274.72 a156.52 156.52 0 1 0 313.04 0 a156.52 156.52 0 1 0 -313.04 0z" fill="rgba(28, 83, 142, 0.4)" class="triangle-float1"></path><path d="M59.01879948544227 200.3798279511378L-12.912018650684047 311.14357461747727 97.85172801565545 383.07439275360366 169.7825461517818 272.3106460872641z" fill="rgba(28, 83, 142, 0.4)" class="triangle-float1"></path></g><defs><mask id="SvgjsMask1110"><rect width="1440" height="560" fill="#ffffff"></rect></mask><linearGradient x1="15.28%" y1="-39.29%" x2="84.72%" y2="139.29%" gradientUnits="userSpaceOnUse" id="SvgjsLinearGradient1111"><stop stop-color="#0e2a47" offset="0"></stop><stop stop-color="rgba(39, 70, 110, 1)" offset="1"></stop></linearGradient><style>
            @keyframes float1 {
                0%{transform: translate(0, 0)}
                50%{transform: translate(-10px, 0)}
                100%{transform: translate(0, 0)}
            }

            .triangle-float1 {
                animation: float1 5s infinite;
            }

            @keyframes float2 {
                0%{transform: translate(0, 0)}
                50%{transform: translate(-5px, -5px)}
                100%{transform: translate(0, 0)}
            }

            .triangle-float2 {
                animation: float2 4s infinite;
            }

            @keyframes float3 {
                0%{transform: translate(0, 0)}
                50%{transform: translate(0, -10px)}
                100%{transform: translate(0, 0)}
            }

            .triangle-float3 {
                animation: float3 6s infinite;
            }
        </style></defs></svg>