<?xml version="1.0" encoding="iso-8859-1"?>
<!-- Generator: Adobe Illustrator 19.0.0, SVG Export Plug-In . SVG Version: 6.00 Build 0)  -->
<svg version="1.1" id="Capa_1" xmlns="http://www.w3.org/2000/svg" xmlns:xlink="http://www.w3.org/1999/xlink" x="0px" y="0px"
	 viewBox="0 0 512 512" style="enable-background:new 0 0 512 512;" xml:space="preserve">
<g>
	<path style="fill:#2C2F38;" d="M485.517,220.69c0,44.756-21.628,85.628-57.291,116.612H83.774
		C48.11,306.317,26.483,265.446,26.483,220.69c0-50.052,27.101-95.25,70.621-127.47v-0.53C97.103,41.49,168.254,0,256,0
		s158.897,41.49,158.897,92.69v0.53C458.416,125.44,485.517,170.637,485.517,220.69z"/>
	<g>
		<path style="fill:#F5EFCA;" d="M358.136,455.239c-6.797,9.799-12.448,20.127-19.333,30.19C321.236,511.029,286.278,512,256,512
			s-65.236-0.971-82.803-26.571c-6.885-10.063-12.535-20.392-19.333-30.19l22.687-22.687l2.472-0.618
			c8.828,13.33,39.989,18.273,76.977,18.273s68.149-4.943,76.977-18.273l2.472,0.618L358.136,455.239z"/>
		<path style="fill:#67B9CC;" d="M431.14,349.926c3.353,21.186-1.06,43.52-20.303,57.467c-14.492,9.909-28.107,21.044-40.696,33.28
			c-4.367,4.542-8.38,9.411-12.004,14.566l-22.688-22.686l-2.472-0.618c-8.828,13.33-39.989,18.273-76.977,18.273
			s-68.149-4.943-76.977-18.273l-2.472,0.618l-22.688,22.687c-3.624-5.154-7.637-10.024-12.004-14.566
			c-12.589-12.236-26.204-23.371-40.696-33.28c-19.244-13.948-23.658-36.281-20.304-57.468c2.649-17.479,12.006-33.633,13.772-51.2
			c0.767-10.406,0.293-20.867-1.412-31.161v-0.088c-2.561-7.29-4.134-14.891-4.679-22.599
			c-8.627-16.908-13.248-35.574-13.507-54.554c0.024-19.854,4.903-39.401,14.212-56.938C98.881,115.438,112.066,99.64,128,86.952
			c17.22-13.709,36.697-24.313,57.556-31.338c45.716-15.301,95.172-15.301,140.888,0C347.303,62.639,366.78,73.243,384,86.952
			c15.934,12.688,29.119,28.487,38.753,46.433c9.309,17.537,14.188,37.084,14.212,56.938c-0.151,18.498-4.561,36.712-12.888,53.23
			c-0.523,8.941-2.398,17.751-5.563,26.13c-1.572,9.597-1.957,19.352-1.146,29.043C419.134,316.292,428.491,332.447,431.14,349.926z
			"/>
		<path style="fill:#41767F;" d="M273.655,485.517c-4.873-0.005-8.823-3.954-8.828-8.828v-8.828c0-4.875-3.952-8.828-8.828-8.828
			s-8.828,3.952-8.828,8.828v8.828c-0.005,4.873-3.954,8.823-8.828,8.828c-4.875,0-8.828,3.952-8.828,8.828s3.952,8.828,8.828,8.828
			c6.537-0.02,12.832-2.476,17.655-6.888c4.824,4.412,11.118,6.868,17.655,6.888c4.875,0,8.828-3.952,8.828-8.828
			S278.531,485.517,273.655,485.517z"/>
		<path style="fill:#CC4B4C;" d="M229.517,238.345c0.006,2.961-0.26,5.916-0.795,8.828c-3.75,22.2-21.142,39.593-43.343,43.343
			c-5.837,1.06-11.818,1.06-17.655,0c-22.2-3.75-39.593-21.143-43.343-43.343c-1.06-5.837-1.06-11.818,0-17.655
			c3.75-22.2,21.143-39.593,43.343-43.343c5.837-1.059,11.818-1.059,17.655,0c22.2,3.75,39.593,21.143,43.343,43.343
			C229.257,232.429,229.524,235.384,229.517,238.345L229.517,238.345z"/>
		<g>
			<path style="fill:#4482C3;" d="M185.379,186.174v34.516c0,4.875-3.952,8.828-8.828,8.828s-8.828-3.952-8.828-8.828v-34.516
				C173.562,185.115,179.542,185.115,185.379,186.174L185.379,186.174z"/>
			<path style="fill:#4482C3;" d="M185.379,256v34.516c-5.837,1.06-11.818,1.06-17.655,0V256c0-4.875,3.952-8.828,8.828-8.828
				S185.379,251.125,185.379,256z"/>
			<path style="fill:#4482C3;" d="M167.724,238.345c-0.014,4.869-3.958,8.813-8.828,8.828h-34.515c-1.06-5.837-1.06-11.818,0-17.655
				h34.515C163.766,229.531,167.71,233.475,167.724,238.345z"/>
			<path style="fill:#4482C3;" d="M229.517,238.345c0.006,2.961-0.26,5.916-0.795,8.828h-34.515c-4.875,0-8.828-3.952-8.828-8.828
				c0-4.875,3.952-8.828,8.828-8.828h34.515C229.257,232.429,229.524,235.384,229.517,238.345L229.517,238.345z"/>
		</g>
		<path style="fill:#CC4B4C;" d="M389.032,238.345c0.006,2.961-0.26,5.916-0.795,8.828c-3.75,22.2-21.142,39.593-43.343,43.343
			c-5.837,1.06-11.818,1.06-17.655,0c-22.2-3.751-39.594-21.143-43.345-43.343c-1.057-5.838-1.057-11.818,0-17.655
			c3.752-22.2,21.145-39.592,43.345-43.343c5.837-1.059,11.818-1.059,17.655,0c22.2,3.75,39.593,21.143,43.343,43.343
			C388.773,232.429,389.039,235.384,389.032,238.345z"/>
		<g>
			<path style="fill:#4482C3;" d="M344.894,186.174v34.516c0,4.875-3.952,8.828-8.828,8.828c-4.875,0-8.828-3.952-8.828-8.828
				v-34.516C333.077,185.115,339.057,185.115,344.894,186.174L344.894,186.174z"/>
			<path style="fill:#4482C3;" d="M344.894,256v34.516c-5.837,1.06-11.818,1.06-17.655,0V256c0-4.875,3.952-8.828,8.828-8.828
				C340.942,247.172,344.894,251.125,344.894,256z"/>
			<path style="fill:#4482C3;" d="M389.032,238.345c0.006,2.961-0.26,5.916-0.795,8.828h-34.515c-4.875,0-8.828-3.952-8.828-8.828
				c0-4.875,3.952-8.828,8.828-8.828h34.515C388.773,232.429,389.039,235.384,389.032,238.345L389.032,238.345z"/>
			<path style="fill:#4482C3;" d="M327.239,238.345c-0.015,4.869-3.958,8.813-8.828,8.828h-34.517
				c-1.057-5.838-1.057-11.818,0-17.655h34.517C323.281,229.532,327.225,233.476,327.239,238.345z"/>
		</g>
	</g>
	<g>
		<path style="fill:#2C2F38;" d="M247.906,345.064c5.459-2.287,11.608-2.287,17.066,0c7.022,2.977,15.046,2.401,21.571-1.548
			c7.526-5.194,7.526-15.582,0-25.97c-4.961-6.959-10.705-13.324-17.119-18.972c-7.565-6.149-18.406-6.149-25.971,0
			c-6.414,5.647-12.159,12.013-17.119,18.972c-7.526,10.388-7.526,20.776,0,25.97C232.859,347.465,240.884,348.041,247.906,345.064
			L247.906,345.064z"/>
		<path style="fill:#2C2F38;" d="M335.448,423.724c-0.005,2.919-0.864,5.773-2.472,8.21c-8.828,13.33-39.989,18.273-76.977,18.273
			s-68.149-4.943-76.977-18.273c-1.608-2.436-2.467-5.29-2.472-8.21c0-19.509,35.575-44.138,79.448-44.138
			S335.448,404.215,335.448,423.724z"/>
	</g>
	<g>
		<path style="fill:#E6E7E8;" d="M238.345,423.724h-8.828c-4.875,0-8.828-3.952-8.828-8.828s3.952-8.828,8.828-8.828h8.828
			c4.875,0,8.828,3.952,8.828,8.828S243.22,423.724,238.345,423.724z"/>
		<path style="fill:#E6E7E8;" d="M282.483,423.724h-8.828c-4.875,0-8.828-3.952-8.828-8.828s3.952-8.828,8.828-8.828h8.828
			c4.875,0,8.828,3.952,8.828,8.828S287.358,423.724,282.483,423.724z"/>
	</g>
	<g>
		<path style="fill:#CC4B4C;" d="M117.782,351.697l26.239-22.899c1.908-1.665,4.438-2.43,6.949-2.102
			c2.511,0.328,4.759,1.719,6.175,3.818l14.137,20.969c1.334,1.945,1.834,4.343,1.39,6.659c-0.445,2.316-1.797,4.359-3.757,5.671
			c-6.265,3.83-11.458,9.184-15.096,15.562c-1.249,2.208-3.393,3.766-5.878,4.274c-2.485,0.508-5.068-0.085-7.083-1.626
			l-22.504-16.567c-2.156-1.587-3.476-4.068-3.587-6.743C114.655,356.039,115.764,353.458,117.782,351.697L117.782,351.697z"/>
		<path style="fill:#CC4B4C;" d="M394.218,351.697l-26.239-22.899c-1.908-1.665-4.438-2.43-6.949-2.102
			c-2.511,0.328-4.759,1.719-6.175,3.818l-14.137,20.969c-1.334,1.945-1.834,4.343-1.39,6.659c0.445,2.316,1.797,4.359,3.757,5.671
			c6.265,3.83,11.458,9.184,15.096,15.562c1.249,2.208,3.393,3.766,5.878,4.274c2.485,0.508,5.068-0.085,7.083-1.626l22.504-16.567
			c2.156-1.587,3.476-4.068,3.587-6.743C397.345,356.039,396.236,353.458,394.218,351.697z"/>
		<path style="fill:#CC4B4C;" d="M141.241,123.586c0,0,61.793-44.138,97.103-35.31v44.138
			C238.345,132.414,211.862,114.759,141.241,123.586z"/>
		<path style="fill:#CC4B4C;" d="M370.759,123.586c0,0-61.793-44.138-97.103-35.31v44.138
			C273.655,132.414,300.138,114.759,370.759,123.586z"/>
	</g>
	<g>
		<g>
			<path style="fill:#41767F;" d="M114.129,309.595c-2.342,0.003-4.588-0.928-6.241-2.586
				c-37.782-37.946-37.716-99.315,0.148-137.179s99.234-37.93,137.179-0.148c3.447,3.447,3.447,9.036,0,12.483
				c-3.447,3.447-9.036,3.447-12.483,0c-31.028-31.028-81.334-31.028-112.362,0s-31.028,81.334,0,112.362
				c2.524,2.525,3.279,6.321,1.913,9.619C120.917,307.443,117.699,309.594,114.129,309.595L114.129,309.595z"/>
			<path style="fill:#41767F;" d="M398.5,309.595c-3.57-0.001-6.788-2.151-8.154-5.45c-1.366-3.298-0.611-7.094,1.913-9.619
				c20.072-20.072,27.91-49.327,20.564-76.745c-7.347-27.418-28.763-48.834-56.181-56.181c-27.418-7.347-56.673,0.492-76.745,20.564
				c-3.453,3.41-9.012,3.392-12.443-0.039c-3.432-3.432-3.449-8.99-0.039-12.443c24.518-24.599,60.306-34.23,93.858-25.26
				c33.552,8.971,59.759,35.177,68.729,68.729c8.97,33.552-0.661,69.34-25.26,93.858C403.088,308.667,400.842,309.598,398.5,309.595
				L398.5,309.595z"/>
		</g>
		<g>
			<circle style="fill:#285680;" cx="176.552" cy="238.345" r="17.655"/>
			<circle style="fill:#285680;" cx="336.066" cy="238.345" r="17.655"/>
		</g>
	</g>
</g>
<g>
</g>
<g>
</g>
<g>
</g>
<g>
</g>
<g>
</g>
<g>
</g>
<g>
</g>
<g>
</g>
<g>
</g>
<g>
</g>
<g>
</g>
<g>
</g>
<g>
</g>
<g>
</g>
<g>
</g>
</svg>
