<?xml version="1.0" encoding="iso-8859-1"?>
<!-- Generator: Adobe Illustrator 19.0.0, SVG Export Plug-In . SVG Version: 6.00 Build 0)  -->
<svg version="1.1" id="Capa_1" xmlns="http://www.w3.org/2000/svg" xmlns:xlink="http://www.w3.org/1999/xlink" x="0px" y="0px"
	 viewBox="0 0 503.62 503.62" style="enable-background:new 0 0 503.62 503.62;" xml:space="preserve">
<g transform="translate(-1)">
	<polygon style="fill:#CB8252;" points="392.137,182.237 423.031,166.79 435.527,164.881 435.527,130.169 413.138,132.686 
		384.587,146.918 121.992,146.918 92.661,132.339 71.052,130.169 71.052,164.881 82.681,166.357 114.442,182.237 	"/>
	<path style="fill:#805333;" d="M425.461,341.999c-5.765,5.788-12.415,10.621-19.699,14.319c-3.211,1.909-11.889,5.207-13.624,8.418
		c-0.391,2.385-0.391,4.818,0,7.203v13.364c0,6.248,0.174,12.496-0.087,18.744c-2.261,48.778-38.139,89.42-86.259,97.714
		c-13.467,1.694-27.056,2.217-40.613,1.562c-34.018,0-69.25,3.645-99.797-14.579c-20.255-12.123-35.844-30.707-44.258-52.762
		c-5.508-17.194-7.774-35.261-6.682-53.283c0-3.992,1.996-14.753,0-18.137c-2.169-3.732-12.062-7.289-15.707-9.546
		c-19.439-11.628-33.497-29.852-25.426-53.89c8.938-26.381,30.807-47.642,38.53-74.631c4.513-16.054,1.822-32.889,2.777-49.291
		c1.512-24.897,13.61-47.956,33.237-63.349c9.214-7.131,19.741-12.379,30.98-15.447l13.017-2.951h125.83l8.678,2.777h0.694
		c23.925,6.22,44.082,22.308,55.452,44.258c7.766,17.551,11.075,36.748,9.633,55.886c-0.519,16.714,3.467,33.259,11.542,47.902
		c7.463,13.451,14.926,26.988,22.389,40.439C436.048,304.683,440.126,324.816,425.461,341.999z"/>
	<path style="fill:#2C2F38;" d="M366.017,383.132c-0.622,33.043-27.61,59.491-60.659,59.444H201.222
		c-33.049,0.047-60.037-26.401-60.659-59.444"/>
	<path style="fill:#CB8252;" d="M305.358,286.373c47.902,0,86.78,25.253,86.78,56.407c-0.019,6.833-1.845,13.54-5.294,19.439
		c-5.138,8.562-12.287,15.741-20.827,20.914c-18.337,10.879-39.341,16.438-60.659,16.054c-17.996,0.231-35.806-3.658-52.068-11.368
		c-16.262,7.711-34.072,11.599-52.068,11.368c-21.318,0.384-42.322-5.175-60.659-16.054c-8.54-5.173-15.689-12.352-20.827-20.914
		c-3.448-5.899-5.275-12.606-5.294-19.439c0-31.154,38.877-56.407,86.78-56.407H305.358z"/>
	<g>
		<path style="fill:#D1D4D1;" d="M235.934,242.983c0.029,6.922-1.64,13.745-4.86,19.873c-17.182,3.992-29.158,12.583-29.765,22.65
			c-2.89,0.551-5.823,0.841-8.765,0.868c-15.569-0.014-29.939-8.36-37.665-21.876c-7.726-13.516-7.626-30.134,0.263-43.556
			L235.934,242.983z"/>
		<path style="fill:#D1D4D1;" d="M357.425,242.983c-0.009,23.96-19.43,43.381-43.39,43.39c-2.942-0.027-5.875-0.317-8.765-0.868
			c-0.607-10.066-12.583-18.658-29.765-22.65c-3.22-6.127-4.889-12.951-4.86-19.873l80.705-22.042h0.087
			C355.384,227.614,357.453,235.23,357.425,242.983L357.425,242.983z"/>
	</g>
	<path style="fill:#805333;" d="M79.73,199.593c0-39.549,11.763-74.263,29.541-94.374c3.315-3.869,4.775-8.994,3.996-14.029
		c-0.778-5.035-3.717-9.48-8.046-12.167c-10.293-6.275-22.114-9.596-34.169-9.599c-39.524,1.234-70.585,34.237-69.424,73.763
		c0,40.738,22.404,73.763,60.746,73.763h0.131c4.542,0.039,8.913-1.733,12.146-4.924c3.232-3.191,5.06-7.539,5.079-12.082V199.593z"
		/>
	<path style="fill:#CB8252;" d="M46.268,184.102c-2.398,0.004-4.689-0.99-6.326-2.742c-8.452-10.886-12.799-24.402-12.279-38.174
		c-0.994-23.499,15.872-43.975,39.127-47.5c3.088-0.342,6.123,0.992,7.958,3.499c1.835,2.507,2.189,5.804,0.93,8.643
		c-1.26,2.84-3.942,4.789-7.032,5.112c-14.327,2.761-24.416,15.676-23.627,30.246c-0.453,9.364,2.211,18.613,7.576,26.301
		c2.366,2.523,3.008,6.21,1.634,9.384S49.727,184.1,46.268,184.102z"/>
	<path style="fill:#805333;" d="M425.889,199.593c0-39.549-11.763-74.263-29.541-94.374c-3.315-3.869-4.775-8.994-3.996-14.029
		s3.717-9.48,8.046-12.167c10.293-6.275,22.114-9.596,34.169-9.599c39.524,1.234,70.585,34.237,69.424,73.763
		c0,40.738-22.404,73.763-60.746,73.763h-0.131c-4.542,0.039-8.913-1.733-12.146-4.924c-3.232-3.191-5.06-7.539-5.079-12.082
		V199.593z"/>
	<path style="fill:#CB8252;" d="M459.349,184.102c-3.459-0.001-6.586-2.057-7.96-5.231s-0.732-6.861,1.634-9.384
		c5.365-7.688,8.029-16.937,7.576-26.301c0.789-14.57-9.3-27.485-23.627-30.246c-4.752-0.527-8.182-4.798-7.671-9.552
		c0.511-4.754,4.772-8.198,9.527-7.702c23.255,3.525,40.121,24,39.128,47.5c0.52,13.772-3.828,27.288-12.279,38.174
		C464.039,183.112,461.747,184.105,459.349,184.102L459.349,184.102z"/>
	<g>
		<path style="fill:#2C2F38;" d="M305.358,286.373c0,11.021-13.624,20.393-32.889,24.125c-12.659,2.546-25.698,2.546-38.357,0
			c-19.265-3.732-32.889-13.104-32.889-24.125c-0.014-0.292,0.015-0.584,0.087-0.868c0.607-10.066,12.583-18.658,29.765-22.65
			c14.62-3.355,29.811-3.355,44.431,0c17.182,3.992,29.158,12.583,29.765,22.65C305.343,285.788,305.372,286.081,305.358,286.373
			L305.358,286.373z"/>
		<path style="fill:#2C2F38;" d="M227.256,0h52.068c9.585,0,17.356,7.771,17.356,17.356v56.407H209.9V17.356
			C209.9,7.771,217.67,0,227.256,0z"/>
	</g>
	<path style="fill:#2C3E50;" d="M192.544,60.746h121.492c9.585,0,17.356,7.771,17.356,17.356v8.678
		c0,9.585-7.771,17.356-17.356,17.356H192.544c-9.585,0-17.356-7.771-17.356-17.356v-8.678
		C175.188,68.516,182.959,60.746,192.544,60.746z"/>
	<g>
		<path style="fill:#2C2F38;" d="M235.934,242.983l-80.792-22.042c9.944-16.851,29.933-24.967,48.809-19.817
			S235.926,223.417,235.934,242.983L235.934,242.983z"/>
		<path style="fill:#2C2F38;" d="M351.438,220.941l-80.792,22.042c0.008-19.567,13.106-36.709,31.983-41.859
			C321.505,195.974,341.494,204.09,351.438,220.941z"/>
		<path style="fill:#2C2F38;" d="M351.438,220.941h-0.087c0-0.174-0.174-0.347-0.26-0.521
			C351.177,220.594,351.351,220.767,351.438,220.941z"/>
	</g>
	<g>
		<path style="fill:#7F5B53;" d="M175.188,338.441c-1.135-0.013-2.257-0.25-3.301-0.695c-1.049-0.442-2.016-1.058-2.86-1.822
			c-2.727-2.711-3.347-6.892-1.525-10.278c1.823-3.386,5.654-5.171,9.419-4.387c0.544,0.093,1.071,0.267,1.564,0.517
			c0.554,0.191,1.08,0.454,1.564,0.784c0.432,0.347,0.864,0.695,1.301,1.042c0.765,0.844,1.381,1.811,1.822,2.86
			c0.927,2.102,0.927,4.496,0,6.597c-0.421,1.061-1.04,2.033-1.822,2.864C179.685,337.507,177.485,338.406,175.188,338.441z"/>
		<path style="fill:#7F5B53;" d="M149.154,355.797c-3.509-0.014-6.667-2.131-8.013-5.372s-0.616-6.972,1.851-9.467
			c0.828-0.786,1.799-1.406,2.86-1.826c2.114-0.864,4.483-0.864,6.597,0c2.177,0.793,3.893,2.509,4.686,4.686
			c0.446,1.044,0.682,2.166,0.696,3.302c-0.018,2.3-0.919,4.506-2.517,6.161C153.651,354.863,151.451,355.762,149.154,355.797z"/>
		<path style="fill:#7F5B53;" d="M183.866,373.153c-1.135-0.014-2.257-0.25-3.301-0.695c-1.049-0.442-2.016-1.058-2.86-1.822
			c-3.356-3.422-3.356-8.9,0-12.322c0.842-0.767,1.81-1.385,2.86-1.826c3.233-1.36,6.967-0.64,9.462,1.826
			c3.356,3.422,3.356,8.9,0,12.322C188.372,372.233,186.167,373.134,183.866,373.153z"/>
		<path style="fill:#7F5B53;" d="M331.391,338.441c-1.135-0.013-2.257-0.25-3.301-0.695c-1.049-0.442-2.016-1.058-2.86-1.822
			c-2.901-2.74-3.644-7.065-1.824-10.616c1.82-3.551,5.765-5.473,9.683-4.718c3.918,0.755,6.866,4.006,7.237,7.979
			c0.37,3.973-1.927,7.712-5.638,9.178C333.645,338.191,332.525,338.427,331.391,338.441L331.391,338.441z"/>
		<path style="fill:#7F5B53;" d="M357.425,355.797c-2.308,0.022-4.529-0.885-6.161-2.517c-1.632-1.632-2.539-3.853-2.517-6.161
			c0.012-1.135,0.247-2.256,0.691-3.301c0.797-2.175,2.511-3.889,4.686-4.686c3.234-1.352,6.964-0.633,9.463,1.826
			c2.503,2.483,3.256,6.233,1.904,9.489C364.138,353.703,360.951,355.817,357.425,355.797z"/>
		<path style="fill:#7F5B53;" d="M322.713,373.153c-1.135-0.014-2.257-0.25-3.301-0.695c-3.303-1.252-5.458-4.451-5.377-7.983
			c0.012-1.135,0.247-2.256,0.691-3.301c0.797-2.175,2.511-3.889,4.686-4.686c3.234-1.352,6.964-0.633,9.463,1.826
			c0.784,0.829,1.402,1.8,1.822,2.86c0.445,1.044,0.681,2.166,0.694,3.301c0.022,2.308-0.885,4.529-2.517,6.161
			C327.242,372.268,325.022,373.175,322.713,373.153L322.713,373.153z"/>
	</g>
	<g>
		<path style="fill:#2C2F38;" d="M218.578,182.237c-2.302,0.003-4.51-0.912-6.135-2.543c-21.174-21.166-49.559-7.623-50.758-7.038
			c-4.291,2.135-9.5,0.388-11.636-3.903s-0.388-9.5,3.903-11.636c1.644-0.831,40.653-19.805,70.763,10.305
			c2.481,2.482,3.224,6.214,1.88,9.456C225.251,180.123,222.087,182.237,218.578,182.237z"/>
		<path style="fill:#2C2F38;" d="M288.002,182.237c-3.509-0.001-6.673-2.115-8.016-5.357c-1.343-3.242-0.601-6.974,1.88-9.456
			c30.106-30.097,69.114-11.127,70.763-10.305c4.267,2.15,5.994,7.344,3.862,11.621s-7.318,6.025-11.604,3.913
			c-1.314-0.64-29.627-14.084-50.75,7.042C292.512,181.325,290.304,182.24,288.002,182.237L288.002,182.237z"/>
	</g>
</g>
<g>
</g>
<g>
</g>
<g>
</g>
<g>
</g>
<g>
</g>
<g>
</g>
<g>
</g>
<g>
</g>
<g>
</g>
<g>
</g>
<g>
</g>
<g>
</g>
<g>
</g>
<g>
</g>
<g>
</g>
</svg>
